<mxfile host="Electron" modified="2024-02-26T18:48:31.364Z" agent="Mozilla/5.0 (Windows NT 10.0; Win64; x64) AppleWebKit/537.36 (KHTML, like Gecko) draw.io/22.1.2 Chrome/114.0.5735.289 Electron/25.9.4 Safari/537.36" etag="OiHpIHaTDSDKtPOkHdeO" version="22.1.2" type="device">
  <diagram name="Page-1" id="41ivl3Act5oi0fFJBohi">
    <mxGraphModel dx="864" dy="1685" grid="1" gridSize="10" guides="1" tooltips="1" connect="1" arrows="1" fold="1" page="1" pageScale="1" pageWidth="827" pageHeight="1169" math="0" shadow="0">
      <root>
        <mxCell id="0" />
        <mxCell id="1" parent="0" />
        <mxCell id="3roogF6qeCzN8-jCuid1-1" value="Consulter les utilisateurs" style="ellipse;whiteSpace=wrap;html=1;" vertex="1" parent="1">
          <mxGeometry x="240" y="45" width="130" height="30" as="geometry" />
        </mxCell>
        <mxCell id="3roogF6qeCzN8-jCuid1-2" value="&lt;b&gt;&lt;u&gt;&lt;font style=&quot;font-size: 14px;&quot;&gt;GESTION DES UTILISATEURS&lt;/font&gt;&lt;/u&gt;&lt;/b&gt;" style="text;html=1;strokeColor=none;fillColor=none;align=center;verticalAlign=middle;whiteSpace=wrap;rounded=0;" vertex="1" parent="1">
          <mxGeometry x="346" y="-22" width="204" height="30" as="geometry" />
        </mxCell>
        <mxCell id="3roogF6qeCzN8-jCuid1-3" value="S&#39;authentifier" style="ellipse;whiteSpace=wrap;html=1;" vertex="1" parent="1">
          <mxGeometry x="540" y="100" width="120" height="40" as="geometry" />
        </mxCell>
        <mxCell id="3roogF6qeCzN8-jCuid1-4" value="RESPONSABLE&lt;br&gt;INFRASTRUCTURE" style="shape=umlActor;verticalLabelPosition=bottom;verticalAlign=top;html=1;outlineConnect=0;" vertex="1" parent="1">
          <mxGeometry x="81" y="121" width="30" height="59" as="geometry" />
        </mxCell>
        <mxCell id="3roogF6qeCzN8-jCuid1-5" value="" style="endArrow=none;html=1;rounded=0;" edge="1" parent="1">
          <mxGeometry width="50" height="50" relative="1" as="geometry">
            <mxPoint x="160" y="280" as="sourcePoint" />
            <mxPoint x="680" y="281" as="targetPoint" />
          </mxGeometry>
        </mxCell>
        <mxCell id="3roogF6qeCzN8-jCuid1-6" value="" style="endArrow=none;html=1;rounded=0;" edge="1" parent="1">
          <mxGeometry width="50" height="50" relative="1" as="geometry">
            <mxPoint x="158" y="-41" as="sourcePoint" />
            <mxPoint x="680" y="-40" as="targetPoint" />
          </mxGeometry>
        </mxCell>
        <mxCell id="3roogF6qeCzN8-jCuid1-7" value="" style="endArrow=none;html=1;rounded=0;" edge="1" parent="1">
          <mxGeometry width="50" height="50" relative="1" as="geometry">
            <mxPoint x="680" y="-40" as="sourcePoint" />
            <mxPoint x="680" y="280" as="targetPoint" />
          </mxGeometry>
        </mxCell>
        <mxCell id="3roogF6qeCzN8-jCuid1-8" value="Enregistrer un utilisateur" style="ellipse;whiteSpace=wrap;html=1;" vertex="1" parent="1">
          <mxGeometry x="238" y="85" width="130" height="30" as="geometry" />
        </mxCell>
        <mxCell id="3roogF6qeCzN8-jCuid1-9" value="Modifier un utilisateur" style="ellipse;whiteSpace=wrap;html=1;" vertex="1" parent="1">
          <mxGeometry x="240" y="124" width="130" height="30" as="geometry" />
        </mxCell>
        <mxCell id="3roogF6qeCzN8-jCuid1-10" value="Supprimer un utilisateur" style="ellipse;whiteSpace=wrap;html=1;" vertex="1" parent="1">
          <mxGeometry x="240" y="164" width="130" height="30" as="geometry" />
        </mxCell>
        <mxCell id="3roogF6qeCzN8-jCuid1-11" value="" style="endArrow=classic;html=1;rounded=0;entryX=1;entryY=0.5;entryDx=0;entryDy=0;dashed=1;exitX=0.5;exitY=0;exitDx=0;exitDy=0;" edge="1" parent="1" source="3roogF6qeCzN8-jCuid1-3" target="3roogF6qeCzN8-jCuid1-1">
          <mxGeometry width="50" height="50" relative="1" as="geometry">
            <mxPoint x="570" y="240" as="sourcePoint" />
            <mxPoint x="610" y="170" as="targetPoint" />
          </mxGeometry>
        </mxCell>
        <mxCell id="3roogF6qeCzN8-jCuid1-12" value="&lt;font style=&quot;font-size: 12px;&quot;&gt;Includes&lt;/font&gt;" style="edgeLabel;html=1;align=center;verticalAlign=middle;resizable=0;points=[];" vertex="1" connectable="0" parent="3roogF6qeCzN8-jCuid1-11">
          <mxGeometry x="0.0249" y="-4" relative="1" as="geometry">
            <mxPoint as="offset" />
          </mxGeometry>
        </mxCell>
        <mxCell id="3roogF6qeCzN8-jCuid1-13" value="" style="endArrow=classic;html=1;rounded=0;entryX=1;entryY=0.5;entryDx=0;entryDy=0;exitX=0;exitY=0.5;exitDx=0;exitDy=0;dashed=1;" edge="1" parent="1" source="3roogF6qeCzN8-jCuid1-3" target="3roogF6qeCzN8-jCuid1-8">
          <mxGeometry width="50" height="50" relative="1" as="geometry">
            <mxPoint x="560" y="240" as="sourcePoint" />
            <mxPoint x="591" y="173" as="targetPoint" />
          </mxGeometry>
        </mxCell>
        <mxCell id="3roogF6qeCzN8-jCuid1-14" value="&lt;font style=&quot;font-size: 12px;&quot;&gt;Includes&lt;/font&gt;" style="edgeLabel;html=1;align=center;verticalAlign=middle;resizable=0;points=[];" vertex="1" connectable="0" parent="3roogF6qeCzN8-jCuid1-13">
          <mxGeometry x="-0.177" y="-2" relative="1" as="geometry">
            <mxPoint as="offset" />
          </mxGeometry>
        </mxCell>
        <mxCell id="3roogF6qeCzN8-jCuid1-15" value="" style="endArrow=classic;html=1;rounded=0;entryX=1;entryY=0.5;entryDx=0;entryDy=0;exitX=0.092;exitY=0.825;exitDx=0;exitDy=0;dashed=1;exitPerimeter=0;" edge="1" parent="1" source="3roogF6qeCzN8-jCuid1-3" target="3roogF6qeCzN8-jCuid1-9">
          <mxGeometry width="50" height="50" relative="1" as="geometry">
            <mxPoint x="524" y="231" as="sourcePoint" />
            <mxPoint x="574" y="181" as="targetPoint" />
          </mxGeometry>
        </mxCell>
        <mxCell id="3roogF6qeCzN8-jCuid1-16" value="&lt;font style=&quot;font-size: 12px;&quot;&gt;Includes&lt;/font&gt;" style="edgeLabel;html=1;align=center;verticalAlign=middle;resizable=0;points=[];" vertex="1" connectable="0" parent="3roogF6qeCzN8-jCuid1-15">
          <mxGeometry x="0.2983" y="-1" relative="1" as="geometry">
            <mxPoint as="offset" />
          </mxGeometry>
        </mxCell>
        <mxCell id="3roogF6qeCzN8-jCuid1-17" value="" style="endArrow=classic;html=1;rounded=0;entryX=1;entryY=0.5;entryDx=0;entryDy=0;dashed=1;exitX=0.5;exitY=1;exitDx=0;exitDy=0;" edge="1" parent="1" source="3roogF6qeCzN8-jCuid1-3" target="3roogF6qeCzN8-jCuid1-10">
          <mxGeometry width="50" height="50" relative="1" as="geometry">
            <mxPoint x="540" y="250" as="sourcePoint" />
            <mxPoint x="570" y="190" as="targetPoint" />
          </mxGeometry>
        </mxCell>
        <mxCell id="3roogF6qeCzN8-jCuid1-18" value="&lt;font style=&quot;font-size: 12px;&quot;&gt;Includes&lt;/font&gt;" style="edgeLabel;html=1;align=center;verticalAlign=middle;resizable=0;points=[];" vertex="1" connectable="0" parent="3roogF6qeCzN8-jCuid1-17">
          <mxGeometry x="-0.119" relative="1" as="geometry">
            <mxPoint as="offset" />
          </mxGeometry>
        </mxCell>
        <mxCell id="3roogF6qeCzN8-jCuid1-19" value="" style="endArrow=none;html=1;rounded=0;entryX=0;entryY=0.5;entryDx=0;entryDy=0;" edge="1" parent="1" target="3roogF6qeCzN8-jCuid1-1">
          <mxGeometry width="50" height="50" relative="1" as="geometry">
            <mxPoint x="111" y="140" as="sourcePoint" />
            <mxPoint x="161" y="90" as="targetPoint" />
          </mxGeometry>
        </mxCell>
        <mxCell id="3roogF6qeCzN8-jCuid1-20" value="" style="endArrow=none;html=1;rounded=0;entryX=0;entryY=0.5;entryDx=0;entryDy=0;" edge="1" parent="1" target="3roogF6qeCzN8-jCuid1-8">
          <mxGeometry width="50" height="50" relative="1" as="geometry">
            <mxPoint x="110" y="140" as="sourcePoint" />
            <mxPoint x="160" y="90" as="targetPoint" />
          </mxGeometry>
        </mxCell>
        <mxCell id="3roogF6qeCzN8-jCuid1-21" value="" style="endArrow=none;html=1;rounded=0;entryX=0;entryY=0.5;entryDx=0;entryDy=0;" edge="1" parent="1" target="3roogF6qeCzN8-jCuid1-9">
          <mxGeometry width="50" height="50" relative="1" as="geometry">
            <mxPoint x="111" y="141" as="sourcePoint" />
            <mxPoint x="161" y="91" as="targetPoint" />
          </mxGeometry>
        </mxCell>
        <mxCell id="3roogF6qeCzN8-jCuid1-22" value="" style="endArrow=none;html=1;rounded=0;entryX=0;entryY=0.5;entryDx=0;entryDy=0;" edge="1" parent="1" target="3roogF6qeCzN8-jCuid1-10">
          <mxGeometry width="50" height="50" relative="1" as="geometry">
            <mxPoint x="110" y="140" as="sourcePoint" />
            <mxPoint x="160" y="90" as="targetPoint" />
          </mxGeometry>
        </mxCell>
        <mxCell id="3roogF6qeCzN8-jCuid1-23" value="" style="endArrow=none;html=1;rounded=0;" edge="1" parent="1">
          <mxGeometry width="50" height="50" relative="1" as="geometry">
            <mxPoint x="159" y="-40" as="sourcePoint" />
            <mxPoint x="159" y="280" as="targetPoint" />
          </mxGeometry>
        </mxCell>
      </root>
    </mxGraphModel>
  </diagram>
</mxfile>
